<mxfile host="app.diagrams.net" modified="2023-09-07T11:29:34.523Z" agent="Mozilla/5.0 (X11; Linux x86_64) AppleWebKit/537.36 (KHTML, like Gecko) Chrome/107.0.0.0 Safari/537.36" etag="i7c-9cLsNt9JYexIvCl8" version="21.7.2" type="device">
  <diagram name="Page-1" id="j0cCEPBFrgAwidesG0jS">
    <mxGraphModel dx="611" dy="366" grid="0" gridSize="10" guides="1" tooltips="1" connect="1" arrows="1" fold="1" page="1" pageScale="1" pageWidth="850" pageHeight="1100" math="0" shadow="0">
      <root>
        <mxCell id="0" />
        <mxCell id="1" parent="0" />
        <mxCell id="KXrI6yhOp-4PLoqSYdpL-11" style="edgeStyle=orthogonalEdgeStyle;rounded=0;orthogonalLoop=1;jettySize=auto;html=1;" edge="1" parent="1" source="KXrI6yhOp-4PLoqSYdpL-1" target="KXrI6yhOp-4PLoqSYdpL-2">
          <mxGeometry relative="1" as="geometry" />
        </mxCell>
        <mxCell id="KXrI6yhOp-4PLoqSYdpL-12" style="edgeStyle=orthogonalEdgeStyle;rounded=0;orthogonalLoop=1;jettySize=auto;html=1;" edge="1" parent="1" source="KXrI6yhOp-4PLoqSYdpL-1" target="KXrI6yhOp-4PLoqSYdpL-4">
          <mxGeometry relative="1" as="geometry" />
        </mxCell>
        <mxCell id="KXrI6yhOp-4PLoqSYdpL-13" style="edgeStyle=orthogonalEdgeStyle;rounded=0;orthogonalLoop=1;jettySize=auto;html=1;" edge="1" parent="1" source="KXrI6yhOp-4PLoqSYdpL-1" target="KXrI6yhOp-4PLoqSYdpL-5">
          <mxGeometry relative="1" as="geometry" />
        </mxCell>
        <mxCell id="KXrI6yhOp-4PLoqSYdpL-14" style="edgeStyle=orthogonalEdgeStyle;rounded=0;orthogonalLoop=1;jettySize=auto;html=1;" edge="1" parent="1" source="KXrI6yhOp-4PLoqSYdpL-1" target="KXrI6yhOp-4PLoqSYdpL-6">
          <mxGeometry relative="1" as="geometry" />
        </mxCell>
        <mxCell id="KXrI6yhOp-4PLoqSYdpL-1" value="i = 0&amp;nbsp;&lt;br&gt;pc = start" style="rounded=0;whiteSpace=wrap;html=1;" vertex="1" parent="1">
          <mxGeometry x="257" y="55" width="120" height="60" as="geometry" />
        </mxCell>
        <mxCell id="KXrI6yhOp-4PLoqSYdpL-15" style="edgeStyle=orthogonalEdgeStyle;rounded=0;orthogonalLoop=1;jettySize=auto;html=1;entryX=0.5;entryY=0;entryDx=0;entryDy=0;" edge="1" parent="1" source="KXrI6yhOp-4PLoqSYdpL-2" target="KXrI6yhOp-4PLoqSYdpL-7">
          <mxGeometry relative="1" as="geometry" />
        </mxCell>
        <mxCell id="KXrI6yhOp-4PLoqSYdpL-2" value="i = 0&amp;nbsp;&lt;br&gt;pc = middle" style="rounded=0;whiteSpace=wrap;html=1;" vertex="1" parent="1">
          <mxGeometry x="58" y="153" width="120" height="60" as="geometry" />
        </mxCell>
        <mxCell id="KXrI6yhOp-4PLoqSYdpL-18" style="edgeStyle=orthogonalEdgeStyle;rounded=0;orthogonalLoop=1;jettySize=auto;html=1;entryX=0.5;entryY=0;entryDx=0;entryDy=0;" edge="1" parent="1" source="KXrI6yhOp-4PLoqSYdpL-4" target="KXrI6yhOp-4PLoqSYdpL-8">
          <mxGeometry relative="1" as="geometry" />
        </mxCell>
        <mxCell id="KXrI6yhOp-4PLoqSYdpL-4" value="i = 1&amp;nbsp;&lt;br&gt;pc = middle" style="rounded=0;whiteSpace=wrap;html=1;" vertex="1" parent="1">
          <mxGeometry x="194" y="153" width="120" height="60" as="geometry" />
        </mxCell>
        <mxCell id="KXrI6yhOp-4PLoqSYdpL-19" style="edgeStyle=orthogonalEdgeStyle;rounded=0;orthogonalLoop=1;jettySize=auto;html=1;" edge="1" parent="1" source="KXrI6yhOp-4PLoqSYdpL-5" target="KXrI6yhOp-4PLoqSYdpL-9">
          <mxGeometry relative="1" as="geometry" />
        </mxCell>
        <mxCell id="KXrI6yhOp-4PLoqSYdpL-5" value="&lt;font style=&quot;font-size: 36px;&quot;&gt;...&lt;/font&gt;" style="rounded=0;whiteSpace=wrap;html=1;" vertex="1" parent="1">
          <mxGeometry x="327" y="153" width="120" height="60" as="geometry" />
        </mxCell>
        <mxCell id="KXrI6yhOp-4PLoqSYdpL-20" style="edgeStyle=orthogonalEdgeStyle;rounded=0;orthogonalLoop=1;jettySize=auto;html=1;" edge="1" parent="1" source="KXrI6yhOp-4PLoqSYdpL-6" target="KXrI6yhOp-4PLoqSYdpL-10">
          <mxGeometry relative="1" as="geometry" />
        </mxCell>
        <mxCell id="KXrI6yhOp-4PLoqSYdpL-6" value="i = 1000&lt;br&gt;pc = middle" style="rounded=0;whiteSpace=wrap;html=1;" vertex="1" parent="1">
          <mxGeometry x="463" y="153" width="120" height="60" as="geometry" />
        </mxCell>
        <mxCell id="KXrI6yhOp-4PLoqSYdpL-7" value="i = 1&lt;br&gt;pc = done" style="rounded=0;whiteSpace=wrap;html=1;" vertex="1" parent="1">
          <mxGeometry x="58" y="259" width="120" height="60" as="geometry" />
        </mxCell>
        <mxCell id="KXrI6yhOp-4PLoqSYdpL-8" value="i = 2&lt;br&gt;pc = done" style="rounded=0;whiteSpace=wrap;html=1;" vertex="1" parent="1">
          <mxGeometry x="194" y="259" width="120" height="60" as="geometry" />
        </mxCell>
        <mxCell id="KXrI6yhOp-4PLoqSYdpL-9" value="&lt;font style=&quot;font-size: 36px;&quot;&gt;...&lt;/font&gt;" style="rounded=0;whiteSpace=wrap;html=1;" vertex="1" parent="1">
          <mxGeometry x="327" y="259" width="120" height="60" as="geometry" />
        </mxCell>
        <mxCell id="KXrI6yhOp-4PLoqSYdpL-10" value="i = 1001&lt;br&gt;pc = done" style="rounded=0;whiteSpace=wrap;html=1;" vertex="1" parent="1">
          <mxGeometry x="463" y="259" width="120" height="60" as="geometry" />
        </mxCell>
      </root>
    </mxGraphModel>
  </diagram>
</mxfile>
